<svg width="16" height="15" viewBox="0 0 16 15" fill="none" xmlns="http://www.w3.org/2000/svg">
<path d="M10.6668 5.33331C11.7277 5.33331 12.7451 5.75474 13.4953 6.50489C14.2454 7.25503 14.6668 8.27245 14.6668 9.33331V14H12.0002V9.33331C12.0002 8.97969 11.8597 8.64055 11.6096 8.3905C11.3596 8.14046 11.0205 7.99998 10.6668 7.99998C10.3132 7.99998 9.97407 8.14046 9.72402 8.3905C9.47397 8.64055 9.3335 8.97969 9.3335 9.33331V14H6.66683V9.33331C6.66683 8.27245 7.08826 7.25503 7.8384 6.50489C8.58855 5.75474 9.60596 5.33331 10.6668 5.33331Z" stroke="#202022" stroke-width="1.5" stroke-linecap="round" stroke-linejoin="round"/>
<path d="M4.00016 5.99998H1.3335V14H4.00016V5.99998Z" stroke="#202022" stroke-width="1.5" stroke-linecap="round" stroke-linejoin="round"/>
<path d="M2.66683 3.99998C3.40321 3.99998 4.00016 3.40303 4.00016 2.66665C4.00016 1.93027 3.40321 1.33331 2.66683 1.33331C1.93045 1.33331 1.3335 1.93027 1.3335 2.66665C1.3335 3.40303 1.93045 3.99998 2.66683 3.99998Z" stroke="#202022" stroke-width="1.5" stroke-linecap="round" stroke-linejoin="round"/>
</svg>
