<svg width="16" height="14" viewBox="0 0 16 14" fill="none" xmlns="http://www.w3.org/2000/svg">
<path d="M8.00004 3.66667C8.00004 2.95942 7.71909 2.28115 7.21899 1.78105C6.7189 1.28095 6.04062 1 5.33337 1H1.33337V11H6.00004C6.53047 11 7.03918 11.2107 7.41425 11.5858C7.78933 11.9609 8.00004 12.4696 8.00004 13M8.00004 3.66667V13M8.00004 3.66667C8.00004 2.95942 8.28099 2.28115 8.78109 1.78105C9.28119 1.28095 9.95946 1 10.6667 1H14.6667V11H10C9.46961 11 8.9609 11.2107 8.58583 11.5858C8.21075 11.9609 8.00004 12.4696 8.00004 13" stroke="#303032" stroke-width="1.5" stroke-linecap="round" stroke-linejoin="round"/>
</svg>
