 <svg width="16" height="16" viewBox="0 0 16 16" fill="none" xmlns="http://www.w3.org/2000/svg">
<path d="M10.6667 2.33333C10.6667 1.78104 10.219 1.33333 9.66671 1.33333C9.11442 1.33333 8.66671 1.78104 8.66671 2.33333V5.66666C8.66671 6.21895 9.11442 6.66666 9.66671 6.66666C10.219 6.66666 10.6667 6.21895 10.6667 5.66666V2.33333Z" stroke="#303032" stroke-width="1.5" stroke-linecap="round" stroke-linejoin="round"/>
<path d="M12.6667 5.66666V6.66666H13.6667C13.8645 6.66666 14.0578 6.60801 14.2223 6.49813C14.3867 6.38825 14.5149 6.23207 14.5906 6.04935C14.6663 5.86662 14.6861 5.66555 14.6475 5.47157C14.6089 5.27759 14.5137 5.09941 14.3738 4.95956C14.234 4.8197 14.0558 4.72446 13.8618 4.68588C13.6678 4.64729 13.4668 4.6671 13.284 4.74278C13.1013 4.81847 12.9451 4.94664 12.8352 5.11109C12.7254 5.27554 12.6667 5.46888 12.6667 5.66666Z" stroke="#303032" stroke-width="1.5" stroke-linecap="round" stroke-linejoin="round"/>
<path d="M7.33337 10.3333C7.33337 9.78104 6.88566 9.33333 6.33337 9.33333C5.78109 9.33333 5.33337 9.78104 5.33337 10.3333V13.6667C5.33337 14.2189 5.78109 14.6667 6.33337 14.6667C6.88566 14.6667 7.33337 14.2189 7.33337 13.6667V10.3333Z" stroke="#303032" stroke-width="1.5" stroke-linecap="round" stroke-linejoin="round"/>
<path d="M3.33337 10.3333V9.33333H2.33337C2.13559 9.33333 1.94225 9.39198 1.7778 9.50186C1.61335 9.61174 1.48518 9.76792 1.40949 9.95065C1.33381 10.1334 1.314 10.3344 1.35259 10.5284C1.39117 10.7224 1.48642 10.9006 1.62627 11.0404C1.76612 11.1803 1.9443 11.2755 2.13828 11.3141C2.33227 11.3527 2.53333 11.3329 2.71606 11.2572C2.89878 11.1815 3.05496 11.0533 3.16484 10.8889C3.27473 10.7244 3.33337 10.5311 3.33337 10.3333Z" stroke="#303032" stroke-width="1.5" stroke-linecap="round" stroke-linejoin="round"/>
<path d="M13.6667 8.66666H10.3334C9.78109 8.66666 9.33337 9.11438 9.33337 9.66666C9.33337 10.2189 9.78109 10.6667 10.3334 10.6667H13.6667C14.219 10.6667 14.6667 10.2189 14.6667 9.66666C14.6667 9.11438 14.219 8.66666 13.6667 8.66666Z" stroke="#303032" stroke-width="1.5" stroke-linecap="round" stroke-linejoin="round"/>
<path d="M10.3334 12.6667H9.33337V13.6667C9.33337 13.8644 9.39202 14.0578 9.5019 14.2222C9.61179 14.3867 9.76796 14.5149 9.95069 14.5905C10.1334 14.6662 10.3345 14.686 10.5285 14.6474C10.7224 14.6089 10.9006 14.5136 11.0405 14.3738C11.1803 14.2339 11.2756 14.0557 11.3142 13.8618C11.3527 13.6678 11.3329 13.4667 11.2573 13.284C11.1816 13.1013 11.0534 12.9451 10.8889 12.8352C10.7245 12.7253 10.5312 12.6667 10.3334 12.6667Z" stroke="#303032" stroke-width="1.5" stroke-linecap="round" stroke-linejoin="round"/>
<path d="M5.66671 5.33333H2.33337C1.78109 5.33333 1.33337 5.78104 1.33337 6.33333C1.33337 6.88561 1.78109 7.33333 2.33337 7.33333H5.66671C6.21899 7.33333 6.66671 6.88561 6.66671 6.33333C6.66671 5.78104 6.21899 5.33333 5.66671 5.33333Z" stroke="#303032" stroke-width="1.5" stroke-linecap="round" stroke-linejoin="round"/>
<path d="M5.66671 3.33333H6.66671V2.33333C6.66671 2.13555 6.60806 1.94221 6.49818 1.77776C6.3883 1.61331 6.23212 1.48514 6.04939 1.40945C5.86667 1.33376 5.6656 1.31396 5.47162 1.35254C5.27764 1.39113 5.09945 1.48637 4.9596 1.62622C4.81975 1.76607 4.72451 1.94426 4.68592 2.13824C4.64734 2.33222 4.66714 2.53329 4.74283 2.71601C4.81852 2.89874 4.94669 3.05492 5.11114 3.1648C5.27559 3.27468 5.46893 3.33333 5.66671 3.33333Z" stroke="#303032" stroke-width="1.5" stroke-linecap="round" stroke-linejoin="round"/>
</svg>
