<svg width="16" height="12" viewBox="0 0 16 12" fill="none" xmlns="http://www.w3.org/2000/svg">
<path d="M1.66667 9.33333C1.20095 7.13551 1.20095 4.86449 1.66667 2.66667C1.72786 2.44347 1.8461 2.24005 2.00974 2.0764C2.17339 1.91276 2.37681 1.79453 2.6 1.73333C6.17564 1.14097 9.82437 1.14097 13.4 1.73333C13.6232 1.79453 13.8266 1.91276 13.9903 2.0764C14.1539 2.24005 14.2721 2.44347 14.3333 2.66667C14.7991 4.86449 14.7991 7.13551 14.3333 9.33333C14.2721 9.55653 14.1539 9.75995 13.9903 9.9236C13.8266 10.0872 13.6232 10.2055 13.4 10.2667C9.82438 10.8591 6.17563 10.8591 2.6 10.2667C2.37681 10.2055 2.17339 10.0872 2.00974 9.9236C1.8461 9.75995 1.72786 9.55653 1.66667 9.33333Z" stroke="#202022" stroke-width="1.5" stroke-linecap="round" stroke-linejoin="round"/>
<path d="M6.66667 8L10 6L6.66667 4V8Z" stroke="#202022" stroke-width="1.5" stroke-linecap="round" stroke-linejoin="round"/>
</svg>
