<svg width="23" height="20" viewBox="0 0 23 20" fill="none" xmlns="http://www.w3.org/2000/svg">
<path d="M11.508 6.3894V8.7872C11.2762 8.79305 11.0959 8.78604 10.9016 8.80006C8.30479 8.85161 5.87897 9.61375 3.82073 11.0059C3.09487 11.4788 2.42047 12.0303 1.79292 12.6567L0.0976562 10.9637C0.839928 10.2179 1.64777 9.56115 2.49305 9.00847C4.92127 7.36707 7.79666 6.46323 10.7892 6.40582C10.9718 6.39056 11.2013 6.3894 11.508 6.3894Z" fill="#202022"/>
<path d="M11.1287 11.1919C14.0112 11.1919 16.7203 12.3147 18.7598 14.3541L17.0646 16.0494C13.8894 12.8766 8.36564 12.8766 5.19514 16.0494L3.49988 14.3541C5.537 12.3147 8.24852 11.1919 11.1287 11.1919Z" fill="#202022"/>
<path d="M11.1287 15.9827C12.7257 15.9827 14.2312 16.6079 15.3669 17.7447L13.6717 19.4399C12.3065 18.0748 9.95559 18.0724 8.58577 19.4399L6.8905 17.7447C8.02849 16.6078 9.53405 15.9827 11.1287 15.9827Z" fill="#202022"/>
<path d="M20.4598 7.35046L22.1551 9.04573C21.4081 9.7927 20.6027 10.4495 19.7597 10.9998C17.2449 12.6799 14.3203 13.5826 11.3113 13.6025C11.1966 13.62 11.0116 13.6223 10.7681 13.5955L11.0256 11.2118C11.0912 11.2188 11.1099 11.2188 11.1755 11.2118C13.8356 11.1884 16.3035 10.4262 18.4366 8.99898C19.1533 8.53184 19.83 7.98032 20.4598 7.35046Z" fill="#202022"/>
<path d="M17.0646 3.95056L18.7598 5.64583C16.7203 7.68535 14.0111 8.80807 11.1287 8.80807C8.24861 8.80807 5.53709 7.68525 3.49988 5.64583L5.19514 3.95056C8.36564 7.12336 13.8894 7.12336 17.0646 3.95056Z" fill="#202022"/>
<path d="M8.5858 0.559937C9.95563 1.92976 12.3066 1.92746 13.6717 0.559937L15.367 2.2552C13.1003 4.52887 9.17121 4.53117 6.89044 2.2552L8.5858 0.559937Z" fill="#202022"/>
</svg>
