<svg width="62" height="18" viewBox="0 0 62 18" fill="none" xmlns="http://www.w3.org/2000/svg">
<path d="M8.5025 9.06453C10.5646 8.67793 11.821 7.32453 11.821 5.39138C11.821 3.1037 9.98465 1.23486 7.18154 1.23486H0.608521V17.055H7.85806C10.6612 17.055 12.53 15.2507 12.53 12.8987C12.53 10.8043 10.9513 9.32209 8.5025 9.06453ZM3.02513 3.42606H6.98811C8.50251 3.42606 9.50138 4.39259 9.50138 5.74581C9.50138 7.06696 8.5026 8.09781 6.98811 8.09781H3.02513V3.42606ZM7.47146 14.8641H3.02513V10.1921H7.47146C9.01793 10.1921 10.0168 11.1909 10.0168 12.5119C10.0168 13.8653 9.01793 14.8641 7.47146 14.8641Z" fill="#202022"/>
<path d="M17.2342 8.54896V5.52026L14.8497 6.26147V17.0551H17.2342V10.5144C17.2342 8.32346 19.1996 6.97025 21.7448 7.67901V5.42378C19.8761 4.97258 18.0397 5.68135 17.2342 8.54896Z" fill="#202022"/>
<path d="M23.517 6.26147V17.0551H25.8692V5.52025L23.517 6.26147ZM24.709 0.719482C23.9035 0.719482 23.2271 1.36393 23.2271 2.20163C23.2271 3.00716 23.9036 3.65132 24.709 3.65132C25.5144 3.65132 26.1912 3.00707 26.1912 2.20163C26.1912 1.36393 25.5145 0.719482 24.709 0.719482Z" fill="#202022"/>
<path d="M35.0518 5.29468C33.0541 5.29468 31.5399 6.51906 30.9277 8.48447V5.52028L28.5433 6.26149V17.0552H30.9277V10.5144C30.9277 8.74232 32.2487 7.45362 34.1497 7.45362C35.825 7.45362 37.1139 8.74232 37.1139 10.5144V17.0552H39.4981V10.1601C39.4981 7.3246 37.6938 5.29468 35.0518 5.29468Z" fill="#202022"/>
<path d="M48.6808 7.61464V5.5203H45.4268V1.00964L43.0423 1.75067V5.5204H40.5938V7.61473H43.0423V12.8343C43.0423 15.6697 44.428 17.0552 47.3922 17.0552H48.6809V14.9286H47.3922C46.0067 14.9286 45.4268 14.3487 45.4268 12.9309V7.61473H48.6808V7.61464Z" fill="#202022"/>
<path d="M55.9302 5.29468C52.5149 5.29468 49.9373 7.87247 49.9373 11.2878C49.9373 14.6708 52.5793 17.2807 56.027 17.2807C58.5723 17.2807 60.5056 15.9274 61.5045 14.0264L59.5068 13.1564C58.8623 14.413 57.6057 15.2186 56.1236 15.2186C54.1259 15.2186 52.6439 13.8976 52.3216 12.061H61.8588C62.2776 8.32338 59.6356 5.29468 55.9302 5.29468ZM52.3861 10.2245C52.8049 8.54898 54.1582 7.3246 55.9302 7.3246C57.7668 7.3246 59.0879 8.54898 59.4745 10.2245H52.3861Z" fill="#202022"/>
</svg>
